<svg xmlns="http://www.w3.org/2000/svg" version="1.0" width="100.000000pt" height="100.000000pt" viewBox="0 0 100.000000 100.000000" preserveAspectRatio="xMidYMid meet">

<g transform="translate(0.000000,100.000000) scale(0.100000,-0.100000)" fill="#000000" stroke="none">
<path d="M386 944 c-225 -54 -376 -286 -338 -517 62 -367 512 -513 773 -252 329 330 18 879 -435 769z m219 -39 c302 -78 415 -452 207 -685 l-37 -42 -32 46 -32 46 27 14 c15 8 40 28 56 45 27 28 28 34 22 82 -4 29 -16 78 -27 108 -13 35 -20 78 -19 113 1 60 -14 100 -49 132 -21 19 -22 19 -57 -15 l-35 -34 -127 0 -127 -1 -37 35 c-37 34 -38 34 -59 15 -35 -32 -50 -72 -49 -132 1 -35 -6 -78 -19 -113 -11 -30 -23 -79 -27 -108 -6 -48 -5 -54 22 -82 16 -17 41 -37 56 -45 l27 -14 -32 -46 -32 -46 -37 42 c-83 93 -121 226 -101 346 43 247 278 401 518 339z m-194 -236 c41 14 137 14 178 0 31 -11 35 -9 71 26 l38 37 17 -26 c13 -19 16 -40 13 -77 -4 -38 1 -64 18 -107 12 -31 26 -80 30 -109 l6 -51 -53 -36 c-96 -63 -224 -82 -344 -51 -33 9 -84 32 -114 51 l-53 36 6 51 c4 29 18 78 30 109 17 43 22 69 18 107 -3 37 0 58 13 77 l17 26 38 -37 c36 -35 40 -37 71 -26z m52 -446 c32 -3 90 0 132 7 70 12 77 12 96 -6 12 -10 27 -31 35 -46 14 -26 13 -27 -40 -53 -116 -57 -256 -57 -372 0 -50 24 -53 28 -43 48 6 12 21 33 33 45 18 20 27 23 61 18 22 -4 66 -9 98 -13z" fill="#000000"/>
<path d="M345 535 c-16 -15 -25 -36 -25 -55 0 -19 9 -40 25 -55 15 -16 36 -25 55 -25 70 0 105 86 55 135 -15 16 -36 25 -55 25 -19 0 -40 -9 -55 -25z m85 -30 c26 -32 -13 -81 -47 -59 -23 14 -28 41 -13 59 16 19 44 19 60 0z" fill="#000000"/>
<path d="M545 535 c-16 -15 -25 -36 -25 -55 0 -19 9 -40 25 -55 49 -50 135 -15 135 55 0 41 -39 80 -80 80 -19 0 -40 -9 -55 -25z m85 -30 c26 -32 -13 -81 -47 -59 -23 14 -28 41 -13 59 16 19 44 19 60 0z" fill="#000000"/>
<path d="M460 372 c0 -5 9 -17 20 -27 19 -17 21 -17 40 0 29 27 25 35 -20 35 -22 0 -40 -4 -40 -8z" fill="#000000"/>
</g>
</svg>